<?xml version="1.0" encoding="UTF-8" standalone="no"?>
<svg
   xmlns:dc="http://purl.org/dc/elements/1.1/"
   xmlns:cc="http://creativecommons.org/ns#"
   xmlns:rdf="http://www.w3.org/1999/02/22-rdf-syntax-ns#"
   xmlns:svg="http://www.w3.org/2000/svg"
   xmlns="http://www.w3.org/2000/svg"
   viewBox="0 0 50.666668 50.666668"
   height="50.666668"
   width="50.666668"
   xml:space="preserve"
   id="svg2"
   version="1.1"><metadata
     id="metadata8"><rdf:RDF><cc:Work
         rdf:about=""><dc:format>image/svg+xml</dc:format><dc:type
           rdf:resource="http://purl.org/dc/dcmitype/StillImage" /></cc:Work></rdf:RDF></metadata><defs
     id="defs6" /><g
     transform="matrix(1.3333333,0,0,-1.3333333,0,50.666667)"
     id="g10"><g
       transform="scale(0.1)"
       id="g12"><path
         id="path14"
         style="fill:#fac752;fill-opacity:1;fill-rule:evenodd;stroke:none"
         d="M 190.691,320.602 330,239.66 185.289,151.371 50,245.801 190.691,320.602" /><path
         id="path16"
         style="fill:#faac40;fill-opacity:1;fill-rule:evenodd;stroke:none"
         d="M 185.289,50 330,142.379 V 239.66 L 185.289,151.5 V 50" /><path
         id="path18"
         style="fill:#f89e30;fill-opacity:1;fill-rule:evenodd;stroke:none"
         d="M 50,147.691 185.289,50 V 151.5 L 50,245.801 v -98.11" /><path
         id="path20"
         style="fill:#f89e30;fill-opacity:1;fill-rule:evenodd;stroke:none"
         d="m 222.59,202.469 v 0 c 0,-0.141 0,-0.278 0,-0.41 0,-11.731 -14.602,-21.258 -32.59,-21.258 -17.988,0 -32.59,9.527 -32.59,21.258 0,0.132 0,0.269 0,0.41 v 0 16.761 0 c 0.34,-11.55 14.809,-20.851 32.59,-20.851 17.781,0 32.25,9.301 32.59,20.851 v 0 -16.761" /><path
         id="path22"
         style="fill:#ffd16f;fill-opacity:1;fill-rule:evenodd;stroke:none"
         d="m 190,240.891 c 17.988,0 32.59,-9.52 32.59,-21.25 0,-11.743 -14.602,-21.262 -32.59,-21.262 -17.988,0 -32.59,9.519 -32.59,21.262 0,11.73 14.602,21.25 32.59,21.25" /><path
         id="path24"
         style="fill:#f89e30;fill-opacity:1;fill-rule:evenodd;stroke:none"
         d="m 299.25,245.801 v 0 c 0,-0.141 0,-0.281 0,-0.41 0,-11.731 -14.602,-21.262 -32.59,-21.262 -17.988,0 -32.59,9.531 -32.59,21.262 0,0.129 0,0.269 0.008,0.41 h -0.008 v 16.75 h 0.008 c 0.332,-11.539 14.801,-20.84 32.582,-20.84 17.781,0 32.25,9.301 32.59,20.84 v 0 -16.75" /><path
         id="path26"
         style="fill:#ffd16f;fill-opacity:1;fill-rule:evenodd;stroke:none"
         d="m 266.66,284.219 c 17.988,0 32.59,-9.528 32.59,-21.258 0,-11.731 -14.602,-21.25 -32.59,-21.25 -17.988,0 -32.59,9.519 -32.59,21.25 0,11.73 14.602,21.258 32.59,21.258" /><path
         id="path28"
         style="fill:#f89e30;fill-opacity:1;fill-rule:evenodd;stroke:none"
         d="m 222.59,292.359 v 0 c 0,-0.129 0,-0.269 0,-0.398 0,-11.492 -14.602,-20.82 -32.59,-20.82 -17.988,0 -32.59,9.328 -32.59,20.82 0,0.129 0,0.269 0,0.398 v 0 16.422 0 c 0.34,-11.312 14.809,-20.422 32.59,-20.422 17.781,0 32.25,9.11 32.59,20.422 v 0 -16.422" /><path
         id="path30"
         style="fill:#ffd16f;fill-opacity:1;fill-rule:evenodd;stroke:none"
         d="m 190,330 c 17.988,0 32.59,-9.328 32.59,-20.82 0,-11.489 -14.602,-20.821 -32.59,-20.821 -17.988,0 -32.59,9.332 -32.59,20.821 0,11.492 14.602,20.82 32.59,20.82" /><path
         id="path32"
         style="fill:#f89e30;fill-opacity:1;fill-rule:evenodd;stroke:none"
         d="m 145.93,245.801 h -0.008 c 0.008,-0.141 0.008,-0.281 0.008,-0.41 0,-11.731 -14.602,-21.262 -32.59,-21.262 -17.9884,0 -32.59,9.531 -32.59,21.262 0,0.129 0,0.269 0,0.41 v 0 16.75 0 c 0.3398,-11.539 14.8086,-20.84 32.59,-20.84 17.781,0 32.25,9.301 32.582,20.84 h 0.008 v -16.75" /><path
         id="path34"
         style="fill:#ffd16f;fill-opacity:1;fill-rule:evenodd;stroke:none"
         d="m 113.34,284.219 c 17.988,0 32.59,-9.528 32.59,-21.258 0,-11.731 -14.602,-21.25 -32.59,-21.25 -17.9884,0 -32.59,9.519 -32.59,21.25 0,11.73 14.6016,21.258 32.59,21.258" /></g></g></svg>